<svg width="135.000000" height="69.000000" viewBox="0 0 135 69" fill="none" xmlns="http://www.w3.org/2000/svg" xmlns:xlink="http://www.w3.org/1999/xlink">
	<desc>
			Created with Pixso.
	</desc>
	<defs/>
	<path d="M41.8 18.19L41.8 21.03L44.12 21.03L44.15 30.81Q44.15 32.57 44.5 33.76Q44.82 34.79 45.49 35.5Q46.88 36.97 49.81 37L51.08 37L50.41 34.01L49.92 34.01Q49.53 34.01 49.14 33.94Q48.35 33.83 47.86 33.38Q47.1 32.68 47.1 31.16L47.1 21.07L49.35 21.07L49.35 18.19L47.1 18.19L47.1 12.1L44.12 12.1L44.12 18.19L41.8 18.19ZM32.16 19.52L32.16 22.41L34.48 22.41L34.48 37L37.44 37L37.44 22.41L39.83 22.41L39.83 19.52L37.44 19.56L37.44 17.48Q37.46 16.1 38.15 15.5Q38.64 15.07 39.48 15.02L40.14 15.02L40.81 12.17L39.51 12.17Q38.27 12.19 37.28 12.7Q36.44 13.13 35.78 13.9Q34.98 14.9 34.67 16.03Q34.48 16.73 34.48 17.48L34.48 19.52L32.16 19.52ZM1.44 12.39L1.44 37L14.66 37L14.66 33.97L4.5 33.97L4.5 12.39L1.44 12.39ZM52.66 12.39L52.66 37L55.72 37L55.72 26.1L58.88 26.1L58.88 23.11L55.72 23.11L55.72 12.39L52.66 12.39ZM60.64 23.11L60.64 26.1L63.77 26.1L63.77 37L66.86 37L66.86 12.39L63.77 12.39L63.77 23.11L60.64 23.11ZM102.28 20.71Q101.63 21.85 101.63 23.35Q101.63 24.06 101.77 24.69Q101.89 25.13 102.09 25.52Q102.88 27.05 105.01 27.89Q105.75 28.14 107.4 28.52Q108.94 28.91 109.65 29.12Q112.15 29.88 112.4 31.1Q112.43 31.23 112.43 31.37Q112.43 31.86 112.27 32.3Q112.08 32.83 111.65 33.27Q111.16 33.77 110.57 34.05Q109.84 34.39 108.94 34.39L108.94 37.17Q110.66 37.17 112.05 36.5Q112.31 36.37 112.57 36.22Q113.73 35.53 114.39 34.5Q115.27 33.15 115.27 31.23Q115.27 30.13 114.85 29.23Q114.8 29.12 114.75 29.01Q114.43 28.44 113.99 28Q112.99 27 111.34 26.66Q107.5 25.75 106.17 25.18Q104.66 24.58 104.45 23.67Q104.41 23.52 104.41 23.35Q104.41 23.18 104.44 23Q104.52 22.45 104.87 21.95Q105.3 21.3 105.9 20.96Q106.53 20.61 107.36 20.61L107.36 17.87Q105.96 17.87 104.55 18.61Q103 19.43 102.28 20.71ZM108.91 17.87L108.91 20.65Q109.44 20.65 110.07 20.89Q111.36 21.37 111.86 22.28Q112.18 22.85 112.18 23.6L114.96 23.14Q114.96 22.89 114.93 22.63Q114.77 21.33 113.8 20.12Q112.95 19.1 111.87 18.54Q110.56 17.87 108.91 17.87ZM16.62 23.11L16.62 31.79Q16.62 32.99 17.5 34.32Q18.37 35.61 19.58 36.28Q20.92 37.03 22.67 37.03L22.67 34.18Q22.04 34.18 21.49 33.97Q21.09 33.81 20.74 33.55Q19.92 32.93 19.66 32.12Q19.54 31.75 19.54 31.33L19.54 23.6Q19.54 23.07 19.79 22.55Q20.13 21.81 20.71 21.39Q21.48 20.82 22.67 20.82L22.67 17.98Q21.12 17.98 19.87 18.58Q18.9 19.05 18.1 19.87Q16.7 21.37 16.63 22.93Q16.62 23.02 16.62 23.11ZM24.18 34.18L24.18 37.03Q25.66 37.01 26.86 36.41Q27.79 35.95 28.54 35.13Q29.9 33.65 30.01 32.08Q30.02 31.93 30.02 31.79L30.02 23.11Q30.02 21.91 29.14 20.61Q28.3 19.35 27.13 18.7Q25.84 17.98 24.15 17.98L24.15 20.82Q24.86 20.82 25.46 21.08Q25.69 21.18 25.91 21.32Q26.57 21.77 26.87 22.4Q27.14 22.94 27.14 23.6L27.14 31.41Q27.14 31.93 26.85 32.5Q26.45 33.35 25.77 33.77Q25.11 34.18 24.18 34.18ZM69.6 23.11L69.6 31.79Q69.6 32.99 70.48 34.32Q71.35 35.61 72.56 36.28Q73.9 37.03 75.65 37.03L75.65 34.18Q75.02 34.18 74.47 33.97Q74.07 33.81 73.72 33.55Q72.9 32.93 72.64 32.12Q72.52 31.75 72.52 31.33L72.52 23.6Q72.52 23.07 72.77 22.55Q73.11 21.81 73.69 21.39Q74.46 20.82 75.65 20.82L75.65 17.98Q74.1 17.98 72.85 18.58Q71.88 19.05 71.08 19.87Q69.68 21.37 69.61 22.93Q69.6 23.02 69.6 23.11ZM77.16 34.18L77.16 37.03Q78.64 37.01 79.84 36.41Q80.77 35.95 81.52 35.13Q82.88 33.65 82.99 32.08Q83 31.93 83 31.79L83 23.11Q83 21.91 82.12 20.61Q81.28 19.35 80.11 18.7Q78.82 17.98 77.13 17.98L77.13 20.82Q77.84 20.82 78.44 21.08Q78.67 21.18 78.89 21.32Q79.55 21.77 79.86 22.4Q80.12 22.94 80.12 23.6L80.12 31.41Q80.12 31.93 79.83 32.5Q79.43 33.35 78.75 33.77Q78.09 34.18 77.16 34.18ZM117.35 23.07L117.35 31.79Q117.35 33.02 118.33 34.39Q119.23 35.68 120.47 36.33Q121.74 37 123.36 37L123.36 34.25Q123.09 34.25 122.83 34.21Q122.1 34.09 121.43 33.62Q120.42 32.87 120.31 32Q120.3 31.9 120.3 31.79L120.3 28.63L130.99 28.63L130.99 23.04Q130.98 22.65 130.9 22.28Q130.62 20.89 129.37 19.7Q128.22 18.65 126.88 18.24Q126 17.98 125.05 17.98L125.05 20.72Q125.21 20.72 125.38 20.73Q125.98 20.79 126.56 21.07Q127.53 21.51 127.91 22.26Q128.17 22.75 128.17 23.39L128.17 25.78L120.3 25.78L120.3 23.39Q120.3 22.86 120.69 22.23Q121.2 21.43 121.94 21.06Q122.55 20.75 123.32 20.75L123.32 17.98Q122.04 17.99 120.94 18.46Q119.82 18.93 118.89 19.87Q117.39 21.45 117.35 23.07L117.35 23.07ZM85.67 18.01L85.67 31.93Q85.67 33.2 86.58 34.53Q87.39 35.7 88.5 36.35Q89.9 37.17 91.79 37.17L91.79 34.22Q91.2 34.22 90.66 34.04Q90.28 33.91 89.92 33.69Q89.04 33.1 88.77 32.3Q88.66 31.96 88.66 31.58L88.66 18.01L85.67 18.01ZM93.33 34.22L93.33 37.17Q94.84 37.15 96.07 36.56Q97.08 36.07 97.91 35.2Q99.38 33.63 99.42 32.02Q99.42 31.97 99.42 31.93L99.42 18.01L96.43 18.01L96.43 31.58Q96.43 32.14 96.11 32.71Q95.74 33.34 95.2 33.71Q94.44 34.22 93.33 34.22ZM104.23 31.48L101.46 32Q101.46 32.27 101.49 32.53Q101.62 33.66 102.34 34.71Q102.92 35.57 103.72 36.13Q105.21 37.17 107.43 37.17L107.43 34.39Q106.69 34.36 105.89 33.97Q104.78 33.36 104.42 32.45Q104.23 32 104.23 31.48ZM125.05 34.22L125.05 37Q125.94 37 126.78 36.77Q127.48 36.58 128.14 36.22Q129.35 35.56 130.09 34.56Q130.73 33.69 131.02 32.57L128.53 31.65Q128.42 32 128.21 32.39Q127.68 33.3 126.89 33.76Q126.1 34.22 125.05 34.22Z" fill="#FFFFFF" fill-opacity="1.000000" fill-rule="evenodd"/>
	<path d="M49.56 55.06Q50.02 54.6 50.09 53.76L49.1 53.76Q49.04 54.39 48.72 54.62Q48.4 54.86 47.85 54.86Q47.23 54.86 46.95 54.63Q46.66 54.41 46.6 53.76L45.62 53.76Q45.68 54.67 46.17 55.13Q46.65 55.59 47.83 55.59Q48.97 55.59 49.49 55.12Q49.52 55.09 49.56 55.06ZM40.46 63.02Q40.91 62.03 40.91 60.7Q40.91 59.37 40.46 58.38Q40.17 57.73 39.69 57.27Q39.44 57.03 39.14 56.84Q38.26 56.29 36.98 56.29Q35.64 56.29 34.75 56.85Q34.4 57.07 34.12 57.36Q33.7 57.79 33.44 58.38Q33.01 59.37 33.01 60.69Q33.01 62.02 33.44 63.01Q33.71 63.63 34.15 64.08Q34.42 64.35 34.75 64.56Q35.64 65.12 36.97 65.12Q38.26 65.12 39.14 64.56Q39.45 64.37 39.71 64.11Q40.17 63.66 40.46 63.02ZM75.36 63.02Q75.81 62.03 75.81 60.7Q75.81 59.37 75.36 58.38Q75.07 57.73 74.59 57.27Q74.34 57.03 74.04 56.84Q73.16 56.29 71.88 56.29Q70.53 56.29 69.65 56.85Q69.3 57.07 69.02 57.36Q68.6 57.79 68.34 58.38Q67.91 59.37 67.91 60.69Q67.91 62.02 68.34 63.01Q68.61 63.63 69.05 64.08Q69.32 64.35 69.65 64.56Q70.53 65.12 71.87 65.12Q73.16 65.12 74.04 64.56Q74.35 64.37 74.61 64.11Q75.07 63.66 75.36 63.02ZM130.43 57.67Q131.09 57.25 132.02 57.25Q132.6 57.25 133.08 57.4Q133.57 57.54 133.97 57.72L134.4 56.81Q133.39 56.31 132.03 56.31Q130.71 56.31 129.79 56.87Q129.38 57.11 129.06 57.44Q128.65 57.86 128.39 58.41Q127.92 59.4 127.92 60.7Q127.92 62.04 128.36 63.04Q128.64 63.69 129.12 64.15Q129.37 64.39 129.67 64.58Q130.55 65.12 131.85 65.12Q132.56 65.12 133.07 65.03Q133.39 64.98 133.7 64.89Q133.88 64.83 134.06 64.77L134.06 63.83Q133.58 63.98 133.08 64.07Q132.57 64.17 132.01 64.17Q130.87 64.17 130.17 63.61Q129.96 63.45 129.8 63.24Q129.06 62.31 129.06 60.71Q129.06 59.1 129.85 58.18Q130.11 57.88 130.43 57.67ZM0.13 56.43L3.45 60.59L0.01 65L1.24 65L4.6 60.65L4.6 65L5.63 65L5.63 60.65L8.98 65L10.22 65L6.79 60.58L10.11 56.43L8.91 56.43L5.63 60.58L5.63 56.43L4.6 56.43L4.6 60.58L1.33 56.43L0.13 56.43ZM13.87 56.43L12.86 56.43L12.86 65L14.06 65L18.79 57.87L18.83 57.87Q18.82 58.05 18.8 58.47Q18.78 58.89 18.76 59.39Q18.74 59.89 18.74 60.34L18.74 65L19.75 65L19.75 56.43L18.55 56.43L13.83 63.52L13.78 63.52Q13.81 63.33 13.82 62.92Q13.84 62.51 13.85 62.02Q13.87 61.53 13.87 61.13L13.87 56.43ZM28.59 65L29.67 65L29.67 56.43L24.98 56.43Q24.81 57.76 24.65 58.94Q24.49 60.11 24.35 60.99Q24.21 61.87 24.11 62.33Q24.03 62.76 23.91 63.2Q23.79 63.64 23.58 63.93Q23.48 64.08 23.33 64.15Q23.19 64.23 23.01 64.23Q22.82 64.23 22.65 64.19Q22.48 64.14 22.35 64.08L22.35 64.98Q22.51 65.04 22.72 65.08Q22.93 65.13 23.13 65.13Q23.74 65.13 24.12 64.84Q24.5 64.55 24.73 63.99Q24.96 63.42 25.11 62.62Q25.24 62 25.37 61.11Q25.51 60.22 25.64 59.24Q25.77 58.26 25.88 57.37L28.59 57.37L28.59 65ZM45.27 56.43L44.26 56.43L44.26 65L45.46 65L50.19 57.87L50.24 57.87Q50.23 58.05 50.2 58.47Q50.18 58.89 50.16 59.39Q50.14 59.89 50.14 60.34L50.14 65L51.15 65L51.15 56.43L49.95 56.43L45.23 63.52L45.19 63.52Q45.21 63.33 45.23 62.92Q45.25 62.51 45.26 62.02Q45.27 61.53 45.27 61.13L45.27 56.43ZM64.68 65L65.97 65L62.09 60.59L65.81 56.43L64.58 56.43L60.8 60.58L60.8 56.43L59.72 56.43L59.72 65L60.8 65L60.8 60.65L64.68 65ZM80.11 57.48L82.93 65L83.82 65L86.67 57.5L86.72 57.5Q86.7 57.88 86.67 58.49Q86.64 59.1 86.64 59.73L86.64 65L87.71 65L87.71 56.43L86.12 56.43L83.44 63.45L83.39 63.45L80.75 56.43L79.15 56.43L79.15 65L80.15 65L80.15 59.8Q80.15 59.12 80.12 58.49Q80.1 57.86 80.06 57.48L80.11 57.48ZM91.47 56.43L91.47 65L92.55 65L92.55 57.37L96.84 57.37L96.84 65L97.91 65L97.91 56.43L91.47 56.43ZM106.77 65L107.86 65L107.86 56.43L103.16 56.43Q103 57.76 102.83 58.94Q102.67 60.11 102.53 60.99Q102.39 61.87 102.3 62.33Q102.22 62.76 102.1 63.2Q101.98 63.64 101.76 63.93Q101.66 64.08 101.52 64.15Q101.37 64.23 101.19 64.23Q101 64.23 100.83 64.19Q100.67 64.14 100.53 64.08L100.53 64.98Q100.69 65.04 100.9 65.08Q101.11 65.13 101.31 65.13Q101.93 65.13 102.3 64.84Q102.68 64.55 102.91 63.99Q103.14 63.42 103.29 62.62Q103.43 62 103.56 61.11Q103.69 60.22 103.82 59.24Q103.95 58.26 104.06 57.37L106.77 57.37L106.77 65ZM111.62 65L116.41 65L116.41 64.05L112.7 64.05L112.7 60.99L116.19 60.99L116.19 60.05L112.7 60.05L112.7 57.37L116.41 57.37L116.41 56.43L111.62 56.43L111.62 65ZM124.69 65L125.99 65L122.1 60.59L125.82 56.43L124.59 56.43L120.81 60.58L120.81 56.43L119.73 56.43L119.73 65L120.81 65L120.81 60.65L124.69 65ZM34.83 63.25Q34.15 62.32 34.15 60.7Q34.15 59.08 34.84 58.16Q34.99 57.96 35.18 57.8Q35.85 57.24 36.98 57.24Q38.11 57.24 38.76 57.8Q38.95 57.96 39.1 58.16Q39.78 59.08 39.78 60.7Q39.78 62.32 39.1 63.25Q38.95 63.46 38.76 63.62Q38.1 64.18 36.97 64.18Q35.85 64.18 35.19 63.63Q34.99 63.46 34.83 63.25ZM69.73 63.25Q69.05 62.32 69.05 60.7Q69.05 59.08 69.73 58.16Q69.89 57.96 70.08 57.8Q70.75 57.24 71.88 57.24Q73.01 57.24 73.66 57.8Q73.85 57.96 74 58.16Q74.67 59.08 74.67 60.7Q74.67 62.32 74 63.25Q73.85 63.46 73.66 63.62Q73 64.18 71.87 64.18Q70.75 64.18 70.09 63.63Q69.89 63.46 69.73 63.25Z" fill="#FFFFFF" fill-opacity="1.000000" fill-rule="evenodd"/>
</svg>
